<svg xmlns="http://www.w3.org/2000/svg" viewBox="0 0 54.67 54.67"><defs><style>.cls-1{fill:#fed406;}.cls-2{fill:#111;}</style></defs><g id="Layer_2" data-name="Layer 2"><g id="Layer_2-2" data-name="Layer 2"><rect class="cls-1" width="54.67" height="54.67" rx="6.17"/><path class="cls-2" d="M43.63,6.38H11A4.66,4.66,0,0,0,6.38,11V43.63A4.66,4.66,0,0,0,11,48.28H28.78V32.08H23.32V25.74h5.46V21.07c0-5.41,3.31-8.36,8.13-8.36,1.63,0,3.26.08,4.87.24v5.66H38.46c-2.63,0-3.14,1.24-3.14,3.08v4H41.6l-.81,6.34H35.28V48.28h8.35a4.65,4.65,0,0,0,4.65-4.65V11A4.66,4.66,0,0,0,43.63,6.38Z"/></g></g></svg>