<svg xmlns="http://www.w3.org/2000/svg" viewBox="0 0 54.67 54.67"><defs><style>.cls-1{fill:#fed406;}.cls-2{fill:#111;}</style></defs><g id="Layer_2" data-name="Layer 2"><g id="Layer_2-2" data-name="Layer 2"><rect class="cls-1" width="54.67" height="54.67" rx="6.17"/><path class="cls-2" d="M46.78,15.53a5.1,5.1,0,0,0-3.59-3.59C40,11.1,27.33,11.1,27.33,11.1s-12.69,0-15.86.84a5.12,5.12,0,0,0-3.59,3.59C7,18.7,7,27.33,7,27.33s0,8.64.84,11.8a5.09,5.09,0,0,0,3.59,3.59c3.17.85,15.86.85,15.86.85s12.7,0,15.86-.85a5.07,5.07,0,0,0,3.59-3.59c.85-3.16.85-11.8.85-11.8S47.63,18.7,46.78,15.53ZM23.27,34.36V20.3l12.18,7Z"/></g></g></svg>