<svg xmlns="http://www.w3.org/2000/svg" viewBox="0 0 54.67 54.67"><defs><style>.cls-1{fill:#196ab4;}</style></defs><g id="Layer_2" data-name="Layer 2"><g id="Layer_2-2" data-name="Layer 2"><path class="cls-1" d="M21.81,33.81H54.67V9.43A9.43,9.43,0,0,0,45.24,0H16.92a5.19,5.19,0,0,0-.11,1.05V28.81A5,5,0,0,0,21.81,33.81Zm8.7-29L46.1,16.2,30.51,27.56Z"/><path class="cls-1" d="M17.28,42.92a8,8,0,0,1-8-8V0A9.41,9.41,0,0,0,0,9.43V45.24a9.43,9.43,0,0,0,9.43,9.43H45.24a9.43,9.43,0,0,0,9.43-9.43V42.92Z"/></g></g></svg>