<svg xmlns="http://www.w3.org/2000/svg" viewBox="0 0 54.67 54.67"><defs><style>.cls-1{fill:#f15a4d;}</style></defs><g id="Layer_2" data-name="Layer 2"><g id="Layer_2-2" data-name="Layer 2"><rect class="cls-1" x="13.45" y="13.45" width="41.22" height="2.07"/><path class="cls-1" d="M12.84,45a5.08,5.08,0,0,1,0-10.16H54.67V33.27H12.84a5.09,5.09,0,0,1,0-10.17H54.67V21.54H12.84a5.08,5.08,0,0,1,0-10.16H54.67v-2A9.43,9.43,0,0,0,45.24,0H9.43A9.43,9.43,0,0,0,0,9.43V45.24a9.43,9.43,0,0,0,9.43,9.43H45.24a9.43,9.43,0,0,0,9.43-9.43V45Z"/><rect class="cls-1" x="13.45" y="36.72" width="41.22" height="2.07"/><rect class="cls-1" x="13.45" y="24.82" width="41.22" height="2.07"/></g></g></svg>