<svg xmlns="http://www.w3.org/2000/svg" viewBox="0 0 54.67 54.67"><defs><style>.cls-1{fill:#f0d2d4;}</style></defs><g id="Layer_2" data-name="Layer 2"><g id="Layer_2-2" data-name="Layer 2"><path class="cls-1" d="M38.6,35.62a1.32,1.32,0,0,0-1.09.21,1.66,1.66,0,0,0-.5,2.11,1.3,1.3,0,0,0,.88.69A1.34,1.34,0,0,0,39,38.41a1.64,1.64,0,0,0,.65-1,1.61,1.61,0,0,0-.15-1.14A1.39,1.39,0,0,0,38.6,35.62Z"/><path class="cls-1" d="M33.55,27.07a4.55,4.55,0,0,0,1-2.86,4,4,0,0,0-1.19-3A4.21,4.21,0,0,0,30.24,20a6.37,6.37,0,0,0-3.68,1.21q-.33.24-.33.39c0,1.43.11,2.14.34,2.14,0,0,.3-.19,1-.58a3.8,3.8,0,0,1,1.83-.58,2.11,2.11,0,0,1,1.63.64,2.36,2.36,0,0,1,.59,1.67,3.73,3.73,0,0,1-.87,2.22c-.48.65-1,1.29-1.46,1.93a4.32,4.32,0,0,0-.46,2.13c0,.29.09.47.27.53a2.75,2.75,0,0,0,.67,0,1.75,1.75,0,0,0,.5-.11.47.47,0,0,0,.33-.29c0-.17,0-.33,0-.5a3.23,3.23,0,0,1,1.12-2C32.86,27.78,33.47,27.17,33.55,27.07Z"/><path class="cls-1" d="M24.72,54.29a6.71,6.71,0,0,0,.46-1.45s-.07,0-.31,0-.55.13-.86.2l-.55.11-.92,0a8,8,0,0,0-1.37.08A8.18,8.18,0,0,1,17.82,53a9.3,9.3,0,0,1-3.13-1.2A4.36,4.36,0,0,1,12.6,49.1c0-.15,0-.15-.19-.32a1.87,1.87,0,0,1-.52-1.21c-.05-.3-.05-.33,0-.44s.1-.42.15-.66v-.06H11.5c-.29,0-.65,0-.79,0A5.47,5.47,0,0,1,7.13,44.7,6.15,6.15,0,0,1,6,43.06a11.76,11.76,0,0,1-1.07-4.75c0-.43,0-1.45,0-1.93,0-.11,0-.46,0-.78a18,18,0,0,1,.5-3.74,5.78,5.78,0,0,1,1.08-2.27c.13-.15.14-.16.24-.5a7,7,0,0,1,1.56-2.82,2.14,2.14,0,0,1,.52-.41l.29-.17,0-.2a7.1,7.1,0,0,1,.11-.92,5.67,5.67,0,0,1,1.11-2.34A8,8,0,0,1,11.68,21c.27-.21.89-.63,1.1-.75l.14-.07L13,20a3.91,3.91,0,0,1,1.09-1.58,2.55,2.55,0,0,0,.38-.47A9,9,0,0,1,17.87,15,16.36,16.36,0,0,1,22,13.6a1.79,1.79,0,0,0,.46-.16c.26-.11.72-.29,1-.39A10.06,10.06,0,0,1,27,12.52h.53l.18-.1a7.5,7.5,0,0,1,2-.69,6.64,6.64,0,0,1,1.63-.14,7.49,7.49,0,0,1,2.06.22l.33.08.31,0,.53-.08a17.86,17.86,0,0,1,2.07,0,11.09,11.09,0,0,1,2.59.59l.2.08.28,0a10.85,10.85,0,0,1,3.75.25,10.15,10.15,0,0,1,3.88,1.91l.38.33.15.14.2,0a2.26,2.26,0,0,1,.69,0,6.56,6.56,0,0,1,3.09,1.84A15,15,0,0,1,53,18.13c.32.36,1.2,1.21,1.67,1.62V6.17A6.17,6.17,0,0,0,48.5,0H6.17A6.17,6.17,0,0,0,0,6.17V48.5a6.17,6.17,0,0,0,6.17,6.17H24.58C24.63,54.55,24.67,54.43,24.72,54.29Z"/><path class="cls-1" d="M41.27,32.26c1.37-.83,2.1-1.29,2.2-1.36a4.56,4.56,0,0,0,1.6-2.57,4.09,4.09,0,0,0-.47-3.24,4.22,4.22,0,0,0-2.72-1.83,6.31,6.31,0,0,0-3.86.33c-.26.11-.39.21-.42.31q-.49,2.09-.15,2.16a8.28,8.28,0,0,1,1.07-.34,3.73,3.73,0,0,1,1.92-.14,2.08,2.08,0,0,1,1.43,1,2.33,2.33,0,0,1,.19,1.76,3.72,3.72,0,0,1-1.35,2l-1.87,1.54a4.21,4.21,0,0,0-.93,2c-.07.28,0,.48.14.58a3.25,3.25,0,0,0,.64.19,1.63,1.63,0,0,0,.51,0,.46.46,0,0,0,.38-.21c.06-.16.11-.31.16-.47A3.28,3.28,0,0,1,41.27,32.26Z"/><path class="cls-1" d="M54.2,36.61a11.44,11.44,0,0,1-4.48,1.73l-.47.09,0,.12a2.36,2.36,0,0,1-.62.92l-.25.25,0,.29a1.51,1.51,0,0,1-.1.46c-.06.15-.07.17,0,.28a1.62,1.62,0,0,1,0,.62,3,3,0,0,1-1.23,1.5l-.6.38a5,5,0,0,0-.61.4,11.11,11.11,0,0,1-2.22,1.44,9.13,9.13,0,0,1-2,.74,7.28,7.28,0,0,1-2.3.26l-1.16,0a15.37,15.37,0,0,1-3.75-.44l-.41-.07a.24.24,0,0,0-.07.13c0,.06-.13.28-.24.49a7.31,7.31,0,0,1-2.15,2.56,1.08,1.08,0,0,0-.24.22L31,49.3c-.08.11-.21.34-.31.5s-.42.73-.73,1.26-.62,1.09-.7,1.24-.36.71-.63,1.24-.49.93-.57,1.13H48.5a6.17,6.17,0,0,0,6.17-6.17V36.25A5.32,5.32,0,0,1,54.2,36.61Z"/><path class="cls-1" d="M22.55,40.21a1.33,1.33,0,0,0,1.12,0,1.36,1.36,0,0,0,.77-.82,1.63,1.63,0,0,0,0-1.17,1.5,1.5,0,0,0-.78-.84,1.37,1.37,0,0,0-1.89.77,1.58,1.58,0,0,0,0,1.15A1.66,1.66,0,0,0,22.55,40.21Z"/><path class="cls-1" d="M28.88,33.25a1.55,1.55,0,0,0-.4,1.07,1.61,1.61,0,0,0,.41,1.09,1.33,1.33,0,0,0,2,0,1.61,1.61,0,0,0,0-2.16,1.31,1.31,0,0,0-1-.46A1.29,1.29,0,0,0,28.88,33.25Z"/><path class="cls-1" d="M20.49,34.18a4.14,4.14,0,0,0,.38,2.14q.16.41.45.39a3.28,3.28,0,0,0,.63-.22,1.51,1.51,0,0,0,.42-.29.45.45,0,0,0,.19-.39c0-.16-.09-.32-.14-.47a3.23,3.23,0,0,1,.29-2.23c.63-1.47,1-2.27,1-2.39a4.59,4.59,0,0,0-.2-3,4.07,4.07,0,0,0-2.26-2.37,4.24,4.24,0,0,0-3.29.1A6.24,6.24,0,0,0,15,28c-.15.23-.2.39-.16.48.54,1.33.92,1.94,1.13,1.85,0,0,.2-.29.67-.9a3.81,3.81,0,0,1,1.48-1.23,2.12,2.12,0,0,1,1.74,0,2.33,2.33,0,0,1,1.19,1.32,3.77,3.77,0,0,1,0,2.39C20.9,32.62,20.7,33.4,20.49,34.18Z"/></g></g></svg>