<svg xmlns="http://www.w3.org/2000/svg" viewBox="0 0 54.67 54.67"><defs><style>.cls-1{fill:#815f9f;}</style></defs><g id="Layer_2" data-name="Layer 2"><g id="Layer_2-2" data-name="Layer 2"><path class="cls-1" d="M46.73,14.8a3.92,3.92,0,1,0-4.48,3.26A3.92,3.92,0,0,0,46.73,14.8Z"/><path class="cls-1" d="M30.45,50.58a3.92,3.92,0,0,1-3.26-4.49,3.81,3.81,0,0,1,1.42-2.43,3.92,3.92,0,0,0-1.87-6.9L22.18,36a13.08,13.08,0,0,1-10.85-15C13.15,9.66,25,2.08,37.85,4.12A23.5,23.5,0,0,1,54.67,15.87V6.17A6.17,6.17,0,0,0,48.5,0H6.17A6.17,6.17,0,0,0,0,6.17V13L11.77,39.3a1.14,1.14,0,0,1-.53,1.49l-1.79.91a1.15,1.15,0,0,1-1.58-.6L0,21V48.5a6.17,6.17,0,0,0,6.17,6.17H48.5a6.17,6.17,0,0,0,6.17-6.17V38.86A23.54,23.54,0,0,1,30.45,50.58ZM9,44.84a1.87,1.87,0,0,1,.89-2.28l1.78-.93a1.85,1.85,0,0,1,2.54.88,13.79,13.79,0,0,1,1,4.34c.3,2.87.42,3.95.46,4.31h0s0,.35,0,0C15.45,51.09,10.32,48.78,9,44.84Z"/><circle class="cls-1" cx="48.96" cy="25.74" r="3.92" transform="translate(9.41 64.41) rotate(-72.09)"/><path class="cls-1" d="M16.7,20.6a3.92,3.92,0,1,0,4.49-3.25A3.92,3.92,0,0,0,16.7,20.6Z"/><circle class="cls-1" cx="29.96" cy="12.13" r="3.92" transform="translate(9.2 36.91) rotate(-72.09)"/></g></g></svg>