<svg xmlns="http://www.w3.org/2000/svg" viewBox="0 0 54.67 54.67"><defs><style>.cls-1{fill:#f0d2d4;}</style></defs><g id="Layer_2" data-name="Layer 2"><g id="Layer_2-2" data-name="Layer 2"><path class="cls-1" d="M48.5,0H6.17A6.17,6.17,0,0,0,0,6.17v8.26a27.12,27.12,0,0,1,16.82,2.86v1.29A24.44,24.44,0,0,0,0,16.63v1.93a21.15,21.15,0,0,1,16.82,1.55V54.67h2.12V20.14a21.32,21.32,0,0,1,21,.24h0V54.67h1.62V18.83a24.39,24.39,0,0,0-22.64-.22V17.29a27.23,27.23,0,0,1,25.54,0V54.67h4a6.17,6.17,0,0,0,6.17-6.17V6.17A6.17,6.17,0,0,0,48.5,0Z"/></g></g></svg>