<svg xmlns="http://www.w3.org/2000/svg" viewBox="0 0 54.67 54.67"><defs><style>.cls-1{fill:#196ab4;}</style></defs><g id="Layer_2" data-name="Layer 2"><g id="Layer_2-2" data-name="Layer 2"><path class="cls-1" d="M48.5,0H36.71c1.56,3.27,2.73,6.7,5.54,9.31s7.69,3.77,9,7.35c.89,2.4.3,6.68-1.84,8.22.67-8.5-6.4-9.21-10.76-14.33L35.59,5Q34,19.77,32.31,34.51c-.12,3,.28,8-1.4,10.86-1.92,3.23-6.34,5-10.27,5.07-7.5.11-14.22-8.15-10.18-14.71,4.37-7.08,15-4.94,19.86.88L34.73,0H6.17A6.17,6.17,0,0,0,0,6.17V48.5a6.17,6.17,0,0,0,6.17,6.17H48.5a6.17,6.17,0,0,0,6.17-6.17V6.17A6.17,6.17,0,0,0,48.5,0Z"/></g></g></svg>