<svg xmlns="http://www.w3.org/2000/svg" viewBox="0 0 298.41 581.17"><defs><style>.cls-1{fill:#e5e5e5;}.cls-2{fill:#0669ba;}.cls-3{fill:#ffd401;}.cls-4{fill:#f4584b;}.cls-5{fill:#805d9d;}</style></defs><g id="Layer_2" data-name="Layer 2"><g id="_2_logo" data-name="2 logo"><g id="vertical_colored" data-name="vertical colored"><path class="cls-1" d="M25.94,510.09l-.7-.12h-.7l-.29-.4-.06-1.4L24.13,507V500l.06-2.27V472.81l.23-1.4.7-.41.93-.06.93-.11h1.17l1.86.23,2.33-.06.94.12h1.45l1.11-.12,1.92-.06,1.52.06.41.76.05,1.28v1.22l-.23.88-.41.29-1.45-.06H36.42l-1.63.17-1-.05-1.4.05-1.22-.05-1.34.05-.7,1.11v6.58l.06,2.33.23,1.64.7.11,1.34-.17,1.17-.06,2,.12,2.1-.06h1.17l1.4.29.23,1.63v1.81l-.53.7H37.76l-1.51.05-1.34.12h-1.4l-1.34-.06-1.52.06-1-.06-.23.29-.06,1.4v12.18l-.06,1.74.06,1v.93l-.35.64-1.16.06-.93.17-.41.23Z"/><path class="cls-1" d="M57,511.14l-2-.7L54,510l-.93-.58-1.81-1.69-.87-1.05-1.34-2.44-1-2.39-.35-1.11-.47-2.21L47,497.39l-.12-1.11-.12-2.21v-3.32l.24-2.16.11-1,.24-2,.23-1,.17-1,.47-2.1.35-1.11.76-2,.46-1,.53-.93,1.45-1.86.88-.94.93-.81,1-.7,2.45-.93,2.44-.29,1.87.4,2,.59,1.1.58,1,.7.93.87,1.52,1.87.58,1,.47,1,.4,1.05.64,2.33.35,1.23.35,1.45.18,1.46.12,1.17,0,1.22.06,1.16v3l-.06,2.27-.11,1.05-.12,1.1-.35,2.22-.47,2.15-.29,1-.81,2-.47,1-.52.94-1.23,1.8-.7.76-1.68,1.51-1,.64-1.05.47-1.11.29-1.75.18h-1Zm3.55-4.66,1.4-.87,1-.82,1.28-2,.47-1,.93-2.15.35-2.22.29-2.15.12-1.29.11-1.22.06-1.28L66.48,489l-.11-1.16-.29-2.57-.24-1.34-.52-2.62-.47-1.22-1.39-2-.76-.82-1.34-1.05-1.87-.35-2.27.53-.93.52L55,478.4l-1,1.86-.41,1.11L53,483.12l-.47,1.8-.17,1.29v1.63l-.24,1.1L52,491.16l-.18,2.33v2.27l.29,2.21.18,1,.23,1.05.76,2.27.7,1.17,1.92,2,2.16,1.11,1,.17Z"/><path class="cls-1" d="M89.15,511.08,88,510.91,87,510.62l-2-.82-.81-.52-.82-.65-1.28-1.39-1-1.81-.47-1.11-.35-1.16L80,501.59v-6.18l.06-1.11v-10l.17-.87-.11-.87.06-1,.11-.81L80.23,479l.06-2.39v-3.38l.29-1.8,1.11-.35,1.69-.12,1.22.23.35,1.4v9l0,1.29v1.28l-.18,1.28v1.34l-.06,1.34-.06,1.22-.11,1.4.23,1.28-.06,1.87v2.5l.06,1.23.06,1.86.23,1.75.24,1.22.29,1.28.81,1.11.93.76,1.11.52,1.69.29,1.52.18,1-.18,2-1.16L96,503.1l.41-1.16.24-1.29.17-2.21L97,497.1V491l-.06-1.63L97,488.3l-.18-.7.23-1.34V485L97,482.71v-11l.29-.41.75-.12,1-.05h.94l.93.05.58.53.18,1.28-.12,1.28.17,1.58v1.1l0,1.17-.06,1.57-.12.64.12,1.57.06,1.34v1.29L101.5,486l.06,1.23-.06,1.1-.12,1.11.06,2.39v2.5l.06,1.46v1.34l-.06,1-.23,2.21-.23,1.23-.3,1.22-.7,2.45-.75,1.4-.53.87L97.36,509l-2.09,1.4-2.39.64-1.28.18Z"/><path class="cls-1" d="M131.91,510.27l-.81.05h-.82l-1.16-.05-2-1.11-1.57-2-.76-.93-1.39-1.92L122,502.46l-.76-.87-.7-.94-1.57-1.86L118,498v7.46l.06,1.17,0,2-.17,1.28-1.51.06-2,.23-1.11-.12-.29-.93-.12-1.51v-1.46l.06-1.22-.06-1.46-.06-1.69.06-1.4L112.8,499l.06-1.45-.06-1.4.06-1.4-.12-1,.24-1.4.11-2v-2.1l0-2v-6.35l.11-1.75-.06-1.46,0-1.51,0-1.4.06-.88-.06-1,1-.87,1.28-.06h1.34l1.34.12,1.75.52,1.05.59.93.64.94.75,1.51,1.58.64.87.52.93.7,2,.35.94.64,2.15.18,1.17.06,2.09-.18,1.87-.35,1.45-.4,1.58-.41,1.1-.59,1-1.57,1.87-.93.87-.29,1.75.7.87,1.4,1.64,1.39,1.68,2.1,2.63,1.46,1.74,2.09,2.63.88,1.39.06.82-.29.29Zm-12-19.17.87-.82.65-.93.64-2.21.17-1.11.12-1.46-.24-1.51-.46-2.45-.41-1.22-.58-1.11-1.46-1.8-1-.59-.12.59.12.87-.06,1v1.05l-.11,1.1V483l-.06,1,.11,1.63,0,2V491l.46.88Z"/><path class="cls-1" d="M139,510.56l-.35-.59-.05-1.39v-1.17l1.1-1.45,1.87.23,2.15-.23,1.11-.3,1.16-.4,1.11-.82.76-1,.52-2.39-.7-2.27-.46-1.05-.53-1.05-1.1-1.86-.47-.88-1.05-1.8L143,490.28l-.58-.93-1.57-2.91-.59-.93-.52-1-.47-1-.4-1-.59-1.75-.23-.93.06-1.05.17-1.87.7-2,1.17-1.69,1.75-1.22,1-.35,2.28-.47,1.16-.05h2.51l1.57.35.47,1.69-.35,1.74-1.75.35-2.45.06-1,.29-1.69,1-.52.88-.24,1.92.7,1.86.41.94,1.11,1.69,1,1.8.58.93.88,1.52.81,1.57.52.93.53,1,.52.94,1.11,1.86.47,1,.46.93.59,1.52.64,1.8.23,1.28-.23,2.45-.35,1.11-.76,1.75-1,1.51-.76.76-.87.7-.93.52-2,.76-1.29.06-1.34.29h-3.49Z"/><path class="cls-1" d="M179.34,514.05l-1.23-1.8-.58-.93-1.57-.47-1.05.23-1.69.18h-1.05l-1.51-.12-2-.7-1-.47-.94-.58L165,507.7l-.88-1.05-1.34-2.44-1-2.39-.34-1.11-.47-2.21-.18-1.11-.11-1.11-.12-2.21v-3.32l.23-2.16.12-1,.23-2,.24-1,.17-1,.47-2.1.35-1.11.75-2,.47-1,.53-.93,1.45-1.86.88-.94.93-.81,1.05-.7,2.44-.93,2.45-.29,1.86.4,2,.59,1.11.58,1.05.7.93.87,1.52,1.87.58,1,.46,1,.41,1.05.64,2.33.35,1.23.35,1.51.18,1.4.11,1.17.06,1.22.06,1.16v3l-.06,2.27-.12,1.05-.11,1.1-.35,2.22-.47,2.15-.29,1-.81,2-.47,1-.52.94-.88,1.28.47,1.51,1.34,2.16.64,1.05.41,1.51-1.4,1.22-1.87.64Zm-5.25-7.51-.35-1.05-.64-1-1.22-1.92-.7-.94-.7-1.57,1.17-1.11.75-.64,1.34-.64.64.12.7,1.11.65.93L177,501.7l.76,1,.64-.87.93-2.21.35-2.22.29-2.15L180,494l.11-1.22.06-1.28-.06-2.45-.11-1.16-.3-2.57-.23-1.34-.52-2.62-.47-1.22-1.4-2-.75-.82L175,476.24l-1.87-.35-2.27.53-.93.52-1.28,1.46-1.05,1.86-.41,1.11-.58,1.75-.47,1.8-.17,1.29v1.63l-.24,1.1-.06,2.22-.17,2.33v2.27l.29,2.21.18,1,.23,1.05.76,2.27.7,1.17,1.92,2,2.15,1.11,1,.17Z"/><path class="cls-1" d="M202.82,511.08l-1.11-.17-1.05-.29-2-.82-.82-.52-.81-.65-1.28-1.39-1-1.81-.47-1.11-.35-1.16-.29-1.57v-6.18l.06-1.11v-10l.17-.87-.11-.87.05-1,.12-.81L193.9,479l.06-2.39v-3.38l.29-1.8,1.11-.35,1.69-.12,1.22.23.35,1.4v9l-.06,1.29v1.28l-.17,1.28v1.34l-.06,1.34-.06,1.22-.11,1.4.23,1.28-.06,1.87v2.5l.06,1.23.06,1.86.23,1.75.23,1.22.29,1.28.82,1.11.93.76,1.11.52,1.69.29,1.51.18,1.05-.18,2-1.16,1.34-2.1.41-1.16.23-1.29.18-2.21.17-1.34V491l-.06-1.63.06-1.05-.17-.7.23-1.34V485l-.06-2.33v-11l.29-.41.76-.12,1-.05h.93l.94.05.58.53.17,1.28-.11,1.28.17,1.58v1.1l-.06,1.17-.05,1.57-.12.64.12,1.57.05,1.34v1.29l-.11,1.45.06,1.23-.06,1.1-.12,1.11.06,2.39v2.5l.06,1.46v1.34l-.06,1-.23,2.21-.24,1.23-.29,1.22-.7,2.45-.75,1.4-.53.87L211,509l-2.1,1.4-2.39.64-1.28.18Z"/><path class="cls-1" d="M222.45,510.32l-1,.06-1.22-.46.17-1.4.24-1,.29-1.81.52-1.86.23-1.17.24-1.22.58-2.56.41-1.93.17-.7.24-1.34.29-1.22.87-3.49.23-2,.53-2,.23-1.11.23-1.17.3-1.34.46-1.51.29-1.34.64-2.27.29-1.05.18-1,.47-2.45.52-1.75,1.34-.29,1.11.23,1.16,1.69.24,1.17.58,2.21.23,1.11.58,2.39.24,1.28.58,2.39.93,3.44.29,1.22.35,1.16.29,1.23.59,2.39.34,1.16.59,2.45.35,1.16.64,2.39.87,3.21.29,1,.64,2.09.35,1.17.47,1.69-.23.93-.41.29-1.46-.12-2.27-.05-1.22-1-.24-1.28-.46-1.81-.29-1.28-.41-1.52-.53-.35-1.8-.05h-1.87l-1.1-.24-1.4.18-1.17-.06-.75,1.34-.24,1.16-.23,1.11-.17,1.17-.24,1.16-.7,1.46-.93.23Zm10.2-11.76,1-.53-.29-1.45-.88-3.27-.64-2.21-.87-3.5-.35-1.22-.76-.06-.29,1.17-.41,2.39-1.05,4.77-.46,2.16-.24,1.46,1.17.29Z"/><path class="cls-1" d="M268.65,510.27l-.81.05H267l-1.16-.05-2-1.11-1.57-2-.76-.93-1.39-1.92-1.46-1.81-.76-.87-.7-.94-1.57-1.86-.93-.82v7.46l.06,1.17.05,2-.17,1.28-1.52.06-2,.23L250,510l-.29-.93-.12-1.51v-1.46l.06-1.22-.06-1.46-.06-1.69.06-1.4-.06-1.34.06-1.45-.06-1.4.06-1.4-.12-1,.24-1.4.11-2v-2.1l-.05-2v-6.35l.11-1.75-.06-1.46-.05-1.51.05-1.4.06-.88-.06-1,1-.87,1.28-.06h1.34l1.34.12,1.75.52,1.05.59.93.64.93.75,1.52,1.58.64.87.52.93.7,2,.35.94.64,2.15.18,1.17.06,2.09-.18,1.87-.35,1.45-.4,1.58-.41,1.1-.59,1-1.57,1.87-.93.87-.29,1.75.7.87,1.4,1.64,1.39,1.68,2.1,2.63,1.46,1.74,2.09,2.63.88,1.39.06.82-.29.29Zm-12-19.17.87-.82.65-.93.64-2.21L259,486l.12-1.46-.24-1.51-.46-2.45-.41-1.22-.58-1.11-1.46-1.8-1-.59-.12.59.12.87-.06,1v1.05l-.11,1.1V483l-.06,1,.11,1.63-.05,2V491l.46.88Z"/><path class="cls-1" d="M277.8,510.32l-.64-1.45v-2.22l.06-2.27V489.47l.11-1.92-.11-1.52.06-1.75.11-1.1.12-2.1v-4.25l.06-1.64.06-.87-.12-1.4.46-1.51,1.58-.24,2.1-.05,1.68.17,1.75.06,2.16.12h1.34l2-.06h1.05l.46.46.18,1.34v1.05l-.47,1.52-1.34.17-1.16-.06h-1.58l-1.16.12-.88-.12-2.91.12-.58.52v9.62l.29,1.4h2.62l1.4-.12,1,.06,1.57-.12h1.63l1.28.29.41,1.17-.06,1.86-.29,1.11-1.4.23h-7.16l-1.28.41-.06,1.34-.06,1.75-.23,1.63.06,1.69v6.41l.81.46h3.79l2-.06h1.92l1.51.47.3,2-.35,1.57-1.34.35H289.1l-1.34.18-1.16-.06-1.17.11-1.22-.05-1.52.05-2.27.24-1,.06Z"/><path class="cls-1" d="M36.45,580.12l-1.4-.23-.81-.29-1.11-.41L32,578.61,30.8,578l-.82-.58-1.68-1.63-.82-1-1.17-2.21-.46-1.11-.47-1.8-.06-.76-.17-1-.12-1.4-.06-1.4,0-1.34-.24-1.69.24-1.45,0-1.46v-1l.12-2.21.23-2.33.53-2.28.35-1.16.81-2.51,1.23-2.27.7-.93.75-.82.88-.7.93-.64,1.75-.75,1.75-.3,1-.11,1.11-.06,1.4.35.35,1.46v1.22l-.35,1.51-.76.29-1.8.24-2.39,1-.88.87-.7,1-1.1,2.1-.29,1-.24,1.05L30,555.36l-.05,1v1.11l-.06,1.92v7.23l.17,2,.24,1,.64,1.29.52,1.1,1.46,1.4,1,.64,2.21,1,2.1.12.76,1.57V578l.11,1.52-.29.52-.87.24Z"/><path class="cls-1" d="M48.69,580.3l-.12-1.46v-2l.06-1.69.7-.75,1.63-.18,2.39.23,1.4.88,0,1.34v.93l.06.93v1l-.29.82-1.4.29H50Z"/><path class="cls-1" d="M67.21,580.24l-.64-1.46v-2.21l.06-2.27V559.38l.12-1.92L66.63,556l.06-1.75.12-1.11.11-2.1v-4.25l.06-1.63.06-.87-.12-1.4.47-1.52,1.57-.23,2.1-.06,1.69.18,1.75,0,2.15.12H78l2-.06h1l.46.47.18,1.34v1l-.47,1.51-1.34.18-1.16-.06H77.18l-1.17.11-.87-.11-2.92.11-.58.53v9.61l.29,1.4h2.62l1.4-.12,1,.06,1.58-.11h1.63l1.28.29.41,1.16-.06,1.87-.29,1.1-1.4.24H72.92l-1.28.4-.06,1.34-.06,1.75-.23,1.63.06,1.69v6.41l.82.47H76l2-.06h1.92l1.52.46.29,2-.35,1.58L80,580H78.52l-1.34.17L76,580.12l-1.16.12-1.23-.06-1.51.06-2.27.23-1,.06Z"/><path class="cls-1" d="M91.45,580.3l-.12-1.46v-2l.06-1.69.7-.75,1.63-.18,2.39.23,1.4.88.06,1.34v.93l.06.93v1l-.3.82-1.39.29H92.73Z"/><path class="cls-1" d="M124.19,580.47l-.35-.58,0-1.4v-1.16l1.1-1.46,1.87.23,2.15-.23,1.11-.29,1.16-.41,1.11-.81.76-1,.52-2.38-.7-2.28-.46-1-.53-1-1.1-1.87-.47-.87-1.05-1.81-1-1.86-.58-.93-1.57-2.92-.59-.93-.52-1-.47-1-.4-1.05-.59-1.75-.23-.93.06-1.05.17-1.86.7-2,1.17-1.69,1.75-1.22,1-.35,2.28-.47,1.16-.06h2.51l1.57.35.47,1.69-.35,1.75-1.75.35-2.45.06-1,.29-1.69,1-.52.87-.24,1.92.7,1.87.41.93,1.11,1.69,1,1.81.58.93.87,1.51.82,1.58.52.93.53,1,.52.93,1.11,1.86.47,1,.46.94.59,1.51.64,1.81.23,1.28-.23,2.45-.35,1.1-.76,1.75-1,1.52-.76.75-.87.7-.93.53-2,.75-1.29.06-1.34.29h-3.49Z"/><path class="cls-1" d="M151.75,580l-.12-1.64v-4.13l-.11-1-.06-1.57v-.94l-.06-1.57v-3.38l-.06-1.1.12-2L151.4,561v-7.05l.06-1.69-.06-2-.06-2.51V546l-.81-.46h-3.27l-1.51,0-1.28-.11-.47-1.58v-1.22l1.4-1.28,2.16.23,1.69-.11.93.11,1.57-.23,2,.12,2.21-.06,1.4.06,1.46-.18,1.51.18,1.52-.12,1.75,1,.11,1-.11,1.51-.41.47-1.4.06H157l-.52.23v1.11l-.12,1.57.18,1.8v3.79l.06,1.81v1.8l-.06,1.93v1.57l-.06.93.12.87v6.3l0,2,.12,1.4v1.69l.06,1.1v1.17l-.06,1.34.06,1-.23,1.16-1.34.35h-2Z"/><path class="cls-1" d="M168.53,580.24l-1,.06-1.22-.47.17-1.4.23-1,.3-1.8.52-1.87.23-1.16.24-1.23.58-2.56.41-1.92.17-.7.23-1.34.3-1.22.87-3.5.23-2,.53-2,.23-1.11.23-1.16.29-1.34.47-1.52.29-1.34.64-2.27.29-1,.18-1,.46-2.44.53-1.75,1.34-.29,1.11.23,1.16,1.69.23,1.16.59,2.22.23,1.1.58,2.39.24,1.29.58,2.38.93,3.44.29,1.22.35,1.17.29,1.22.58,2.39.35,1.17.59,2.44.35,1.17.64,2.39.87,3.2.29,1,.64,2.1.35,1.16.47,1.69-.23.93-.41.3-1.46-.12-2.27-.06-1.22-1-.24-1.28L181.7,576l-.29-1.28-.41-1.51-.53-.35-1.8-.06H176.8l-1.1-.23-1.4.17-1.17-.06-.75,1.34-.24,1.17-.23,1.11-.18,1.16-.23,1.17-.7,1.45-.93.24Zm10.2-11.77,1-.52-.3-1.46-.87-3.26-.64-2.22-.87-3.49-.35-1.23-.76,0-.29,1.16-.41,2.39-1,4.78-.46,2.15-.24,1.46,1.17.29Z"/><path class="cls-1" d="M197,580l-.11-1.64v-4.13l-.12-1-.06-1.57v-.94l-.06-1.57v-3.38l-.06-1.1.12-2-.06-1.69v-7.05l.06-1.69-.06-2-.06-2.51V546l-.81-.46h-3.26l-1.52,0-1.28-.11-.47-1.58v-1.22l1.4-1.28,2.16.23,1.69-.11.93.11,1.57-.23,2,.12,2.22-.06,1.39.06,1.46-.18,1.52.18,1.51-.12,1.75,1,.11,1-.11,1.51-.41.47-1.4.06h-4.77l-.53.23v1.11l-.12,1.57.18,1.8v3.79l.06,1.81v1.8l-.06,1.93v1.57l-.06.93.12.87v6.3l.06,2,.11,1.4v1.69l.06,1.1v1.17L202,578l.06,1-.23,1.16-1.34.35h-2Z"/><path class="cls-1" d="M217,580.12l-.46-1.75v-8.85l.06-1.69v-1.46l-.06-1.74v-1.58l.06-1.34.17-2v-2.39l.18-1.16-.12-1.34.17-2.39.06-1.11v-3.43l.06-1.64-.12-3.84.18-1.11,1.75-.29h1.34l1.57.29.41.47.06,1.28v4.37l-.06,2.21-.12,2.1-.12,2.33v9.09l0,1.11v3.32l-.06,1.34-.06,1.28.17.81,0,.94-.06,1.39.11,2v1.28l.06,1.8v.94l-.17.64-1.17.23-1.34-.06-.93.29Z"/><path class="cls-1" d="M241.82,581.05l-2-.69-1-.47-.93-.58-1.81-1.69-.87-1-1.34-2.45-1.05-2.39-.35-1.1-.46-2.22-.18-1.1-.12-1.11-.11-2.22v-3.32l.23-2.15.12-1,.23-2,.23-1.05.18-1,.46-2.1.35-1.1.76-2,.47-1,.52-.94,1.46-1.86.87-.93.93-.82,1.05-.7,2.45-.93,2.45-.29,1.86.41,2,.58,1.11.58,1,.7.93.88,1.51,1.86.58,1,.47,1,.41,1.05.64,2.33.35,1.22.35,1.46.17,1.45.12,1.17.06,1.22.06,1.17v3L256,564.1l-.12,1-.12,1.11-.34,2.21-.47,2.16-.29,1-.82,2-.46,1-.53.93-1.22,1.81-.7.75-1.69,1.52-1,.64-1,.47-1.11.29-1.74.17h-1Zm3.56-4.66,1.39-.87,1-.82,1.28-2,.46-1,.94-2.15.34-2.21.3-2.16.11-1.28.12-1.22.06-1.29-.06-2.44-.12-1.17-.29-2.56-.23-1.34-.53-2.62-.46-1.23-1.4-2-.76-.81-1.34-1.05-1.86-.35-2.27.52-.94.53-1.28,1.45-1.05,1.87-.4,1.1L237.8,553l-.46,1.81-.18,1.28v1.63l-.23,1.11-.06,2.21-.17,2.33v2.27l.29,2.22.17,1.05.24,1,.75,2.27.7,1.16,1.92,2,2.16,1.11,1,.18Z"/><path class="cls-1" d="M281.73,580l-.12-1.69-.05-1.11V575l.11-1.81-.11-1.28v-3.09l.11-2.33.06-1,.06-2v-1l.06-1.92v-1.4l-1.11-1.22-1-.7L278,556.06l-.87-.7-4.2-2.74-1.28-.75-.46.35-.06,1.69v1.22l.06,1.22V560l-.12,1.69.06,1.75.06,1.28-.12,2.1-.12,2L270.9,570l-.06,2.27v3.26l.06,1.81v1.51l-.18.87-.29.41-.87.06-1.34.06-1.81-.23-.64-.06-.23-1.23v-1l0-2.16.06-1,.06-2.15v-4.26l.06-2.09.12-2.33.05-1.23v-2.33l.18-1.11L266,558l.12-3.38v-3.2l-.06-1.4.12-1.45V546.8l.05-1v-3.61l.35-.7.82-.18.76.06,1-.06,1.22.06.64.12.12,1.57v1.28l1.05,2,2,1.4,3.15,2.1,1,.64,2,1.4,1.4.58.17-.87-.11-.82.11-.52-.06-.82.06-1.22-.06-.64.12-1.34v-2.62l.12-1.4.7-.47.93-.29.64.06.58-.12,1,.24.88.69.11,1.58.12,4.43v1.34l.17.87-.23,1.86-.06,1.23.06,1.22v3.5l-.06,1.1v8.86L287,570l-.17,1.75v2l-.12,2.16-.05,1.57.11,1-.17,1-.7.35-2.22.47-1,0Z"/><polygon class="cls-2" points="60.02 345.33 60.18 344.23 59.55 342.19 58.29 341.56 57.04 344.39 57.19 348.32 57.35 351.46 57.04 354.92 57.04 371.27 56.88 374.1 57.19 376.93 57.35 379.29 57.04 382.59 56.88 387.78 56.72 392.81 57.04 395.48 57.04 399.88 57.35 401.77 56.88 402.87 56.88 405.7 56.56 409.31 56.88 412.77 56.72 415.6 57.04 418.59 56.72 422.2 57.35 425.35 58.61 426.77 59.24 426.45 59.71 425.51 59.87 423.46 59.87 420.48 59.71 417.49 59.87 414.5 60.02 409.47 59.71 404.44 59.87 400.35 59.87 379.6 60.34 375.67 60.18 373 60.18 369.07 60.49 364.98 60.02 361.52 60.02 360.74 60.49 357.91 60.65 352.88 60.65 350.05 60.18 346.59 60.02 345.33"/><path class="cls-2" d="M137.27,316.12H33a15.19,15.19,0,0,0-15.2,15.19V435.59A15.19,15.19,0,0,0,33,450.78H137.27a15.19,15.19,0,0,0,15.19-15.19V331.31A15.19,15.19,0,0,0,137.27,316.12Zm-34.8,23.24L100,340.77l-2.51-.47-4.09.47-4.4-.16-4.4.16H78.26L77,341.87v9.59l-.16,2.83v8.49l-.63,4.88V384L80,385.1l3.46-.15H94l4.56.63,1.88,3.46.16,3L99.17,396l-2.2.63-2.21-.16H77.16l-.79.79-.16,3.93v23.74l3,.79,2.83.15H96.34l4.55,1.42.48,4.71v3.62l-1.26.94L97,436.2H94.29l-4.24.47-3.15.16-2.51-.32-2.2.32-3.46-.16H74.64l-2,.16-3.15-.32-2.83.16L63.8,437l-5-.15-3-.47-3.62.47-3.3-.63H45.4l-3.46-1.1-1.1-4.25-.15-3.3.15-5.35.47-4.24-.15-3.61L41,411.67V409l-.16-2,.32-2.83-.32-3.78.32-2.67-.32-3.61.32-4.72L41,385.89l.47-2V342.66l-.16-6-.62-3.93,2.2-2.68,4.87-.31H72.6l4.56.15,3.61-.15h3.78l5.5-.16,3.3.16h5.19l2.83.47,1.57,1.42.63,3.45Z"/><polygon class="cls-3" points="81.32 197.11 76.29 198.53 74.25 199.47 72.99 199.94 69.22 201.83 63.87 205.92 59.63 209.53 57.43 212.52 54.44 217.24 52.24 221.95 50.67 226.51 50.04 229.65 49.41 236.41 49.57 241.6 50.83 246.32 52.71 252.92 55.7 257.95 58.22 261.88 60.1 263.77 64.82 268.01 70.95 271.94 75.51 274.14 77.39 274.46 81.17 275.87 86.04 276.81 88.08 276.19 87.14 274.3 83.21 273.2 80.54 272.57 77.87 271.63 73.46 269.58 69.22 267.07 64.66 263.61 62.46 261.57 60.42 259.36 58.53 257.01 56.01 253.08 55.07 251.51 54.28 248.67 53.18 242.39 52.87 238.93 52.4 234.53 53.34 230.13 53.81 227.77 54.13 225.41 55.23 223.52 56.49 220.22 59.16 215.66 61.04 212.99 63.24 210.63 65.6 208.59 70.32 205.29 72.52 203.56 73.62 203.4 77.39 201.51 83.52 199.63 86.04 197.9 86.51 196.96 85.73 196.33 81.32 197.11"/><path class="cls-3" d="M137.27,169.78H33A15.19,15.19,0,0,0,17.8,185V289.25A15.19,15.19,0,0,0,33,304.44H137.27a15.19,15.19,0,0,0,15.19-15.19V185A15.19,15.19,0,0,0,137.27,169.78ZM99.56,210v2.67l-2.36,1.1-5.81.63-3.31.63-6.44,2.21-2.83,1.57-2.67,2-2.2,2.36-2.36,3.3-1.26,4.4-.94,6.76.31,3,1.89,5.81L73.15,249,75,251.35l2.35,1.88,5.35,3.15,2.83.94,3.14.63,5.35.78,3.61.32,1.26,2,.16,5,.15,6.6-.15,6V288l-.47,1.73-3.3,1.72-6.92-.31-7.23-.47-3.3-.47-3.15-.63-3.14-.94-6.13-2.36-2.83-1.42-2.83-1.57-2.68-1.73-4.87-3.61L50,276l-1.89-2.2-3.45-4.72L43,266.44l-3.14-5-1.26-2.52-.94-2.67-1.89-6.44-1.25-6.14V233l.31-3.45.47-3.31.79-3.45,2-6.13,1.1-2.84L42,208.43l1.57-2.67,2.68-3.62,3.14-3.61,2.36-2.36,4.72-3.77,2.2-1.58,5-3,3-1.42,2.83-1.26,3.15-1.1,6.13-1.88,7.07-1.1,7.39-1,4.4.47,1.1,1.11.16,3.77v6.13l.31,4.87.16,2.2v2.67l.32,4.25Z"/><polygon class="cls-4" points="62.41 115.5 61.12 111.29 60.5 108.36 59.41 106.71 58.88 102.29 58.06 99.26 56.85 95.35 56.18 91.62 55.71 88.66 54.43 85.09 53.93 82.62 53.38 79.35 52.36 75.56 50.83 70.43 50.21 67.51 47.4 57.03 45.95 52.21 44.94 49.06 43.87 48.7 43.02 48.6 42.3 48.96 42.55 52.31 43.95 56.32 44.7 59.71 45.89 64.76 47.75 71.09 49.18 77.06 49.87 79.64 51.36 83.96 52.02 87.04 52.85 90.72 53.74 94.06 54.66 96.26 54.74 99.01 55.66 101.85 56.64 105.5 57.89 109.55 59.08 114.61 61.85 124.93 62.68 126.83 64.54 126.49 64.88 123.47 63.55 119.75 62.41 115.5"/><path class="cls-4" d="M157.59,112l-27-100.72A15.2,15.2,0,0,0,112,.52l-100.72,27A15.19,15.19,0,0,0,.52,46.12l27,100.72a15.18,15.18,0,0,0,18.61,10.74l100.72-27A15.2,15.2,0,0,0,157.59,112ZM96,89.73l-4.87,2.45L85.68,93l-9.56,3.22-.74.85.9,4,2.56,9.57.71,3.23,3.33,12.45.31,4.8-2.09,2.52L78,134.76l-18.83,5.05-5.66,1.35-3.25-.59-1.07-2.8-2.2-8.2-1-3.3-1.75-4.74L43.54,118l-1.73-5.24-1.67-6.87-1.47-5.47L37.3,95.87l-1.22-4.56L34.75,87l-1.24-5.2L28.84,64.29l-1-5.1-1.05-3.3-.89-2.69-.73-2.73-.58-2.78-1-4.29,1.24-3.91,1.5-1.06,2.63-.54,5.12-1.53,3.07-.66,4.56-1.22,3.23-.71,7.74-2.08,3-1.11L58,30.27l3.15-1,10.63-2.85,5.5-1.32,4.34-.83,3.14,3.23.32,5.44-4.12,2.25-5.85,1.24-5.69,1.85-5.77,1.54-1.59,5,1.51,6.27.74,2.73,1.13,6L66,62.78l3.21,12,1.62,5.42L72,83.8l3.93.09,12.9-3.46,4.54-.07,1.94,1.76,1,3Z"/><path class="cls-5" d="M283.22,316.12H178.94a15.19,15.19,0,0,0-15.19,15.19V435.59a15.19,15.19,0,0,0,15.19,15.19H283.22a15.19,15.19,0,0,0,15.19-15.19V331.31A15.19,15.19,0,0,0,283.22,316.12Zm-35.43,19.94-.63,6.44.16,3.46.31,5.19-1.42,3.14-3.45.48-3.78.47-4.71.31-2.52.95-3.3,2.51-1.26,2.67.32,4.56.78,3,1,3.15,1.1,3,2.2,5.82,1.41,4.4,1.58,4.4,1.57,6,.78,3.61,1,4.09.31,3.46-.16,3.46-1.25,7.07-2.68,6.6-2,2.83-2.2,2.52-2.52,2.2-5.81,3.46-3.15,1.1-3.46.78-6.75.16-6.29.63-5.35-.47-2.83-.16H192l-5.66-.31L183,436l-.79-1.73v-7.7l-.16-3.3v-6.44l.16-5.67,2.83-1.88h3.46l3.77-.16,4.72-.31,2.83-.63,3.62-3.3.15-5-.47-2.82-1.73-5.82-1.89-6-.94-3.15-.94-3-.79-3-1.73-6-.78-3-1-3.31-.15-3.14-.16-2.83.16-2.83,1.25-5.66.95-2.83,1.26-2.51,3-4.4,4.4-4.25,6.14-4.09,6.44-2.35,9.75-2.52h2.83l3.61-.31,4.41-.32,2.82-.15h2.68l3.45.78,1.26,3.62.32,3Z"/><polygon class="cls-5" points="225.78 340.62 224.52 340.93 222.48 341.4 220.28 343.29 216.66 345.49 212.42 350.21 211 353.19 210.22 359.33 210.22 362.16 210.37 364.99 210.84 367.81 211.94 372.38 213.67 377.09 215.4 381.65 216.19 383.38 216.82 386.68 218.7 392.5 219.65 396.27 219.96 397.69 220.28 398.79 220.12 400.83 220.28 403.97 220.12 406.02 219.81 409.63 218.39 412.62 216.35 415.13 213.99 417.65 208.64 419.69 205.81 420.64 200.63 422.21 199.68 424.72 203.93 424.41 208.01 423.15 208.8 422.84 214.46 420.95 219.02 417.18 221.22 414.35 221.06 413.72 222.79 411.05 223.58 405.86 223.26 400.99 222.63 395.01 221.38 391.4 220.59 388.1 219.81 385.11 218.23 381.18 217.13 377.09 215.56 373.79 215.09 370.8 213.99 367.81 213.36 363.41 213.04 358.7 212.73 357.44 213.36 356.65 213.67 354.92 214.62 353.04 215.72 351.31 220.28 346.75 226.56 343.29 230.02 342.35 233.95 341.72 233.95 339.68 229.39 339.2 225.78 340.62"/></g></g></g></svg>